<?xml version="1.0" standalone="no"?>
<!DOCTYPE svg PUBLIC "-//W3C//DTD SVG 20010904//EN"
 "http://www.w3.org/TR/2001/REC-SVG-20010904/DTD/svg10.dtd">
<svg version="1.0" xmlns="http://www.w3.org/2000/svg"
 width="400.000000pt" height="400.000000pt" viewBox="0 0 400.000000 400.000000"
 preserveAspectRatio="xMidYMid meet">
<metadata>
Created by potrace 1.16, written by Peter Selinger 2001-2019
</metadata>
<g transform="translate(0.000000,400.000000) scale(0.100000,-0.100000)"
fill="#000000" stroke="none">
<path d="M1860 3845 c-37 -21 -60 -56 -60 -95 0 -42 20 -75 61 -96 60 -30 139
25 139 98 0 29 -44 88 -66 88 -8 0 -14 5 -14 10 0 14 -30 11 -60 -5z"/>
<path d="M1525 3323 c-81 -42 -121 -115 -113 -207 6 -76 44 -130 111 -162 52
-24 54 -24 377 -24 365 0 375 2 437 73 85 97 55 260 -59 316 -43 20 -57 21
-384 21 -289 -1 -343 -3 -369 -17z"/>
<path d="M3081 2786 c-12 -14 -46 -132 -58 -201 -3 -16 -12 -39 -18 -50 -7
-11 -18 -37 -25 -58 -6 -20 -15 -35 -20 -32 -14 9 -20 69 -11 103 6 21 6 32 0
32 -6 0 -8 4 -5 8 7 12 -6 29 -30 36 -14 4 -29 0 -45 -13 -19 -16 -24 -30 -27
-89 -4 -62 -1 -77 27 -136 24 -48 46 -77 86 -110 55 -45 194 -106 241 -106 41
0 90 26 116 61 26 37 68 151 68 186 0 12 3 23 8 25 16 7 92 169 92 196 0 21
-7 32 -26 41 -40 18 -62 5 -94 -59 -16 -32 -34 -62 -40 -65 -13 -8 -42 14 -34
26 2 5 15 38 28 73 21 58 22 67 9 85 -16 24 -74 29 -90 9 -5 -7 -16 -33 -23
-58 -18 -57 -40 -94 -52 -82 -7 7 -3 38 18 125 12 51 -62 93 -95 53z m140
-313 c29 -17 59 -76 59 -114 0 -12 -17 -39 -39 -60 -34 -34 -44 -39 -86 -39
-42 0 -52 5 -81 36 -28 29 -34 43 -34 81 0 38 5 50 34 79 28 28 42 34 76 34
23 0 55 -8 71 -17z"/>
<path d="M1741 2655 c-9 -5 -26 -18 -37 -28 -10 -10 -32 -29 -49 -43 -19 -16
-23 -23 -10 -17 26 11 475 10 498 -1 31 -15 18 9 -15 29 -18 10 -44 29 -57 42
-13 13 -29 23 -35 23 -214 5 -280 3 -295 -5z"/>
<path d="M1422 2519 c-77 -38 -153 -147 -139 -200 3 -10 1 -19 -4 -19 -12 0
-11 -37 1 -45 6 -4 8 -11 5 -16 -8 -11 16 -79 27 -79 4 0 8 -4 8 -10 0 -14 69
-94 76 -87 1 1 4 59 6 129 1 69 6 124 11 121 4 -2 7 5 7 15 0 11 7 32 14 48 8
15 12 32 9 37 -3 6 -2 7 4 4 5 -3 18 8 28 26 10 18 25 36 32 40 7 5 11 12 8
18 -3 5 1 6 9 3 9 -3 16 -2 16 3 0 6 10 15 23 21 18 9 13 11 -38 11 -42 1 -73
-5 -103 -20z"/>
<path d="M2230 2522 c50 -33 96 -88 125 -147 16 -33 21 -65 23 -177 2 -76 5
-138 8 -138 11 0 69 59 88 90 37 58 50 120 37 179 -27 127 -128 212 -250 210
-56 0 -56 0 -31 -17z"/>
<path d="M1645 2328 c-31 -18 -47 -37 -40 -48 3 -5 -1 -10 -9 -10 -19 0 -22
-20 -3 -20 6 0 4 -5 -5 -11 -15 -8 -18 -25 -18 -113 0 -90 3 -107 23 -137 42
-63 67 -69 300 -69 230 0 254 5 300 59 26 32 27 36 27 158 l0 125 -39 39 -39
39 -238 0 c-162 -1 -245 -4 -259 -12z m113 -105 l3 -53 44 0 44 0 3 53 3 52
35 0 35 0 3 -131 c3 -144 -4 -162 -53 -150 -23 6 -25 11 -25 56 l0 50 -45 0
-45 0 0 -50 c0 -45 -3 -50 -25 -56 -52 -13 -55 -6 -55 146 l0 141 38 -3 37 -3
3 -52z m270 -79 c3 -144 -4 -162 -53 -150 l-25 6 0 134 c0 73 3 136 7 140 4 4
21 6 38 4 l30 -3 3 -131z"/>
<path d="M910 1693 c-47 -24 -63 -62 -67 -162 -1 -46 -10 -117 -18 -158 -16
-75 -11 -105 18 -116 28 -11 50 22 62 91 5 33 11 42 27 42 18 0 19 -5 13 -64
-5 -58 -3 -67 16 -85 18 -16 25 -18 41 -8 20 13 23 23 33 100 3 26 10 47 15
47 5 0 12 -21 15 -47 12 -90 13 -93 44 -93 37 0 42 15 41 120 -3 114 8 190 26
183 7 -2 16 -27 21 -55 9 -57 32 -80 61 -62 23 15 27 47 12 100 -21 74 -116
165 -156 150 -8 -3 -12 -2 -9 3 7 12 -27 23 -63 21 -15 -1 -29 -1 -32 0 -27
10 -71 7 -100 -7z"/>
</g>
</svg>
